<svg width="113" height="58" viewBox="0 0 113 58" fill="none" xmlns="http://www.w3.org/2000/svg">
<rect x="45" y="41" width="67" height="5" fill="#FBE62A"/>
<path d="M78.4455 29.227H65.4065V24.093C65.4065 21.492 67.1235 19.775 69.7245 19.775H72.6315C73.5495 19.775 74.1615 19.299 74.1615 18.568C74.1615 17.769 73.5495 17.225 72.6315 17.225H65.7465V13.723H73.8385C76.3375 13.723 78.3435 15.576 78.3435 18.381C78.3435 21.254 76.3375 23.175 73.8385 23.175H70.7785C70.0645 23.175 69.5885 23.651 69.5885 24.365V25.725H78.4455V29.227ZM90.6267 13.723V19.435H91.4087V13.723H94.9787V29.227H91.4087V22.665H90.6267V29.227H87.0567V13.723H90.6267ZM79.1687 29.227V25.487C80.7667 25.215 82.6027 23.43 82.6027 20.506V17.123H79.3387V13.723H86.3427V20.506C86.3427 25.453 83.1467 28.717 79.1687 29.227ZM96.3393 25.827H107.899V13.723H111.809V29.227H96.3393V25.827ZM96.3393 19.112V18.228C96.3393 15.423 98.3453 13.553 101.371 13.553C104.397 13.553 106.403 15.423 106.403 18.228V19.112C106.403 21.917 104.397 23.787 101.371 23.787C98.3453 23.787 96.3393 21.917 96.3393 19.112ZM101.371 20.387C102.051 20.387 102.493 20.047 102.493 19.452V17.888C102.493 17.293 102.051 16.953 101.371 16.953C100.691 16.953 100.249 17.293 100.249 17.888V19.452C100.249 20.047 100.691 20.387 101.371 20.387ZM45.3527 32.847H50.1237C54.1017 32.847 56.1427 35.213 56.1427 38.775C56.1427 42.337 54.1017 44.703 50.1237 44.703H48.2127C46.4967 44.703 45.3527 43.559 45.3527 41.843V32.847ZM48.5507 41.752C48.5507 41.947 48.6807 42.077 48.8757 42.077H49.3697C51.6447 42.077 52.9447 41.089 52.9447 38.775C52.9447 36.461 51.6447 35.473 49.3697 35.473H48.5507V41.752ZM65.8819 41.271H59.8239C60.0319 42.116 60.6039 42.636 61.4099 42.636C62.0989 42.636 62.6189 42.337 62.7749 41.817H65.9079C65.4139 43.624 63.9449 44.976 61.4229 44.976C58.3679 44.976 56.7429 42.974 56.7429 40.491C56.7429 37.995 58.2899 35.993 61.3449 35.993C64.3999 35.993 65.9469 37.995 65.9469 40.491C65.9469 40.764 65.9209 41.011 65.8819 41.271ZM59.8889 39.399H62.8009C62.5799 38.71 62.1119 38.255 61.3449 38.255C60.5779 38.255 60.1099 38.71 59.8889 39.399ZM75.5692 39.737H72.4362C72.3972 38.879 71.9162 38.255 71.0192 38.255C69.8882 38.255 69.4072 39.256 69.4072 40.491C69.4072 41.726 69.8882 42.727 71.0192 42.727C71.9162 42.727 72.3972 42.103 72.4362 41.245H75.5692C75.4132 43.377 73.7622 44.989 71.0192 44.989C67.9642 44.989 66.4172 42.987 66.4172 40.491C66.4172 37.995 67.9642 35.993 71.0192 35.993C73.7622 35.993 75.4132 37.605 75.5692 39.737ZM79.4858 44.716H76.4958V36.201H79.4858V44.716ZM76.4178 34.199C76.4178 33.289 77.1198 32.587 78.0298 32.587C78.9138 32.587 79.6158 33.289 79.6158 34.199C79.6158 35.083 78.9138 35.785 78.0298 35.785C77.1198 35.785 76.4178 35.083 76.4178 34.199ZM80.5255 44.703V42.389H84.9065C85.2835 42.389 85.4915 42.311 85.4915 42.012C85.4915 41.726 85.2835 41.648 84.9065 41.648H82.9955C81.4095 41.648 80.3435 40.725 80.3435 38.879C80.3435 37.085 81.4095 36.201 82.9955 36.201H87.8705V38.515H83.8665C83.4895 38.515 83.2815 38.593 83.2815 38.892C83.2815 39.178 83.4895 39.256 83.8665 39.256H85.5045C87.2725 39.256 88.4295 40.179 88.4295 42.025C88.4295 43.819 87.2725 44.703 85.5045 44.703H80.5255ZM92.2837 44.716H89.2937V36.201H92.2837V44.716ZM89.2157 34.199C89.2157 33.289 89.9177 32.587 90.8277 32.587C91.7117 32.587 92.4137 33.289 92.4137 34.199C92.4137 35.083 91.7117 35.785 90.8277 35.785C89.9177 35.785 89.2157 35.083 89.2157 34.199ZM97.8084 35.993C100.863 35.993 102.41 37.995 102.41 40.491C102.41 42.987 100.863 44.989 97.8084 44.989C94.7534 44.989 93.2064 42.987 93.2064 40.491C93.2064 37.995 94.7534 35.993 97.8084 35.993ZM97.8084 42.597C98.9394 42.597 99.4204 41.596 99.4204 40.491C99.4204 39.386 98.9394 38.385 97.8084 38.385C96.6774 38.385 96.1964 39.386 96.1964 40.491C96.1964 41.596 96.6774 42.597 97.8084 42.597ZM107.691 38.385C106.794 38.385 106.196 38.879 106.196 39.62V44.703H103.206V39.49C103.206 37.384 105 35.993 107.691 35.993C110.382 35.993 112.176 37.384 112.176 39.49V44.703H109.186V39.62C109.186 38.879 108.588 38.385 107.691 38.385Z" fill="#2227F7"/>
</svg>
