<svg width="123" height="36" viewBox="0 0 123 36" fill="none" xmlns="http://www.w3.org/2000/svg">
<path d="M0 9.5952H9.94051C18.2288 9.5952 22.4813 14.5248 22.4813 21.9463C22.4813 29.3679 18.2288 34.2975 9.94051 34.2975H5.95889C2.38355 34.2975 0 31.9139 0 28.3386V9.5952ZM6.66312 28.149C6.66312 28.5553 6.93398 28.8261 7.34026 28.8261H8.36953C13.1095 28.8261 15.8181 26.7676 15.8181 21.9463C15.8181 17.1251 13.1095 15.0665 8.36953 15.0665H6.66312V28.149Z" fill="#2227F7"/>
<path d="M35.9205 0C43.6129 0 49.1925 5.60677 49.1925 12.8929C49.1925 20.206 43.6129 25.8128 35.9205 25.8128C28.2281 25.8128 22.6484 20.206 22.6484 12.8929C22.6484 5.60677 28.2281 0 35.9205 0ZM35.9205 20.3415C39.9021 20.3415 42.5294 17.0641 42.5294 12.8929C42.5294 8.74873 39.9021 5.47134 35.9205 5.47134C31.9389 5.47134 29.3115 8.74873 29.3115 12.8929C29.3115 17.0641 31.9389 20.3415 35.9205 20.3415Z" fill="#2227F7"/>
<path d="M62.6318 0C70.3242 0 75.9038 5.60677 75.9038 12.8929C75.9038 20.206 70.3242 25.8128 62.6318 25.8128C54.9394 25.8128 49.3597 20.206 49.3597 12.8929C49.3597 5.60677 54.9394 0 62.6318 0ZM62.6318 20.3415C66.6134 20.3415 69.2407 17.0641 69.2407 12.8929C69.2407 8.74873 66.6134 5.47134 62.6318 5.47134C58.6502 5.47134 56.0228 8.74873 56.0228 12.8929C56.0228 17.0641 58.6502 20.3415 62.6318 20.3415Z" fill="#2227F7"/>
<path d="M76.7482 9.56134H86.6887C94.9769 9.56134 99.2294 14.491 99.2294 21.9125C99.2294 29.334 94.9769 34.2636 86.6887 34.2636H82.707C79.1317 34.2636 76.7482 31.8801 76.7482 28.3047V9.56134ZM83.4113 28.1151C83.4113 28.5214 83.6821 28.7923 84.0884 28.7923H85.1177C89.8577 28.7923 92.5663 26.7338 92.5663 21.9125C92.5663 17.0912 89.8577 15.0327 85.1177 15.0327H83.4113V28.1151Z" fill="#2227F7"/>
<path d="M113.385 34.2636H106.721V26.165C103.065 24.9732 100.763 21.6145 99.2728 16.712L97.1059 9.56134H104.04L105.936 16.1703C106.64 18.6622 107.859 21.0999 110.053 21.0999C112.247 21.0999 113.466 18.6622 114.17 16.1703L116.066 9.56134H123L120.833 16.712C119.343 21.6145 117.041 24.9732 113.385 26.165V34.2636Z" fill="#2227F7"/>
<path d="M36.1063 22.427C36.1063 25.7944 37.4439 29.0238 39.825 31.4048C42.2061 33.7859 45.4355 35.1235 48.8028 35.1235C52.1701 35.1235 55.3995 33.7859 57.7806 31.4048C60.1616 29.0238 61.4993 25.7944 61.4993 22.427L55.762 22.427C55.762 24.2727 55.0288 26.0428 53.7237 27.348C52.4186 28.6531 50.6485 29.3863 48.8028 29.3863C46.9571 29.3863 45.187 28.6531 43.8819 27.3479C42.5768 26.0428 41.8436 24.2727 41.8436 22.427L36.1063 22.427Z" fill="#FBE62A"/>
<circle cx="42.3699" cy="12.947" r="5.24788" fill="#2227F7"/>
<circle cx="67.7629" cy="12.947" r="5.24788" fill="#2227F7"/>
</svg>
